<svg width="32" height="32" viewBox="0 0 32 32" fill="none" xmlns="http://www.w3.org/2000/svg">
<g clip-path="url(#clip0_170_317)">
<path fill-rule="evenodd" clip-rule="evenodd" d="M20.6935 3.73242C20.9322 4.02879 21.054 4.42864 21.2975 5.22848L26.6164 22.7012C24.6185 21.6644 22.4742 20.9384 20.2573 20.5483L16.7942 8.8453C16.7665 8.75195 16.7095 8.67005 16.6314 8.61185C16.5534 8.55364 16.4586 8.52226 16.3613 8.5224C16.2639 8.52253 16.1692 8.55418 16.0914 8.6126C16.0135 8.67103 15.9566 8.75309 15.9293 8.84652L12.5081 20.5424C10.2812 20.9307 8.12702 21.6578 6.12036 22.6985L11.4654 5.22455C11.7096 4.42606 11.8317 4.02697 12.0705 3.73106C12.2812 3.46988 12.5554 3.26702 12.8667 3.14182C13.2195 3 13.637 3 14.472 3H18.2896C19.1257 3 19.5437 3 19.8967 3.14212C20.2083 3.26781 20.4826 3.471 20.6935 3.73242V3.73242Z" fill="white"/>
<path fill-rule="evenodd" clip-rule="evenodd" d="M21.33 23.5329C20.4531 24.2828 18.703 24.7942 16.6871 24.7942C14.2128 24.7942 12.1391 24.0239 11.5886 22.9878C11.3919 23.5817 11.3478 24.2611 11.3478 24.6952C11.3478 24.6952 11.2181 26.8267 12.7007 28.3092C12.7007 28.1261 12.7368 27.9449 12.8069 27.7758C12.8769 27.6067 12.9796 27.4531 13.1091 27.3236C13.2385 27.1942 13.3922 27.0916 13.5613 27.0216C13.7304 26.9515 13.9116 26.9155 14.0947 26.9155C15.4139 26.9155 15.4124 28.0664 15.4113 29.0004L15.4112 29.0837C15.4112 30.5011 16.2775 31.7163 17.5097 32.2287C17.32 31.8384 17.2218 31.4099 17.2224 30.976C17.2224 29.624 18.016 29.1205 18.9385 28.5354C19.6725 28.0699 20.488 27.5528 21.05 26.5154C21.3526 25.9565 21.5107 25.3308 21.5097 24.6952C21.51 24.3009 21.4494 23.9089 21.33 23.5331V23.5329Z" fill="#FF5D01"/>
<path fill-rule="evenodd" clip-rule="evenodd" d="M21.33 23.5329C20.4531 24.2828 18.703 24.7942 16.6871 24.7942C14.2128 24.7942 12.1391 24.0239 11.5886 22.9878C11.3919 23.5817 11.3478 24.2611 11.3478 24.6952C11.3478 24.6952 11.2181 26.8267 12.7007 28.3092C12.7007 28.1261 12.7368 27.9449 12.8069 27.7758C12.8769 27.6067 12.9796 27.4531 13.1091 27.3236C13.2385 27.1942 13.3922 27.0916 13.5613 27.0216C13.7304 26.9515 13.9116 26.9155 14.0947 26.9155C15.4139 26.9155 15.4124 28.0664 15.4113 29.0004L15.4112 29.0837C15.4112 30.5011 16.2775 31.7163 17.5097 32.2287C17.32 31.8384 17.2218 31.4099 17.2224 30.976C17.2224 29.624 18.016 29.1205 18.9385 28.5354C19.6725 28.0699 20.488 27.5528 21.05 26.5154C21.3526 25.9565 21.5107 25.3308 21.5097 24.6952C21.51 24.3009 21.4494 23.9089 21.33 23.5331V23.5329Z" fill="url(#paint0_linear_170_317)"/>
</g>
<defs>
<linearGradient id="paint0_linear_170_317" x1="25.278" y1="19.1994" x2="20.8199" y2="28.532" gradientUnits="userSpaceOnUse">
<stop stop-color="#FF1639"/>
<stop offset="1" stop-color="#FF1639" stop-opacity="0"/>
</linearGradient>
<clipPath id="clip0_170_317">
<rect width="32" height="32" fill="white"/>
</clipPath>
</defs>
</svg>
