<svg width="40" height="40" viewBox="0 0 40 40" fill="none" xmlns="http://www.w3.org/2000/svg">
<rect x="3" y="3" width="34" height="34" rx="17" fill="white"/>
<path d="M20 3C10.582 3 3 10.582 3 20C3 29.418 10.582 37 20 37C29.418 37 37 29.418 37 20C37 10.582 29.418 3 20 3ZM23.9667 9.13842C24.1508 9.13275 24.318 9.33108 24.2089 9.53225L19.8966 17.4372C19.8748 17.4776 19.8638 17.5228 19.8647 17.5686C19.8656 17.6145 19.8784 17.6593 19.9018 17.6987C19.9252 17.7381 19.9585 17.7707 19.9983 17.7934C20.0381 17.8161 20.0831 17.8281 20.1289 17.8282H27.5806C27.8214 17.8282 27.9376 18.1215 27.7619 18.2858L14.7002 30.4762C14.4665 30.6944 14.1194 30.387 14.3064 30.1277L20.4887 21.598C20.5171 21.5585 20.534 21.512 20.5377 21.4635C20.5413 21.415 20.5316 21.3665 20.5095 21.3232C20.4874 21.2799 20.4538 21.2435 20.4124 21.218C20.371 21.1925 20.3234 21.1789 20.2748 21.1787H12.3882C12.3358 21.1785 12.2845 21.1628 12.241 21.1335C12.1975 21.1042 12.1636 21.0627 12.1437 21.0141C12.1238 20.9656 12.1188 20.9122 12.1293 20.8608C12.1398 20.8094 12.1653 20.7622 12.2027 20.7253L23.791 9.21775C23.8374 9.16925 23.901 9.14079 23.9681 9.13842H23.9667Z" fill="#30C6B9"/>
</svg>
