<svg width="32" height="32" viewBox="0 0 32 32" fill="none" xmlns="http://www.w3.org/2000/svg">
<path d="M31.3395 13.2657C30.6189 12.7657 28.9675 12.5782 27.6765 12.8282C27.5265 11.5782 26.8359 10.4846 25.6349 9.51587L24.9444 9.01587L24.4639 9.73462C23.8635 10.6721 23.5632 11.9846 23.6532 13.2346C23.6832 13.672 23.8334 14.4532 24.2837 15.1407C23.8635 15.3908 22.9927 15.7033 21.8519 15.7033H0.144341L0.0843411 15.9533C-0.125909 17.2031 -0.125909 21.1093 2.33609 24.1091C4.1976 26.3903 6.95985 27.5465 10.5927 27.5465C18.459 27.5465 24.2837 23.7653 27.016 16.9219C28.0969 16.9531 30.4087 16.9219 31.5797 14.5781C31.6097 14.5156 31.6697 14.3906 31.8799 13.922L32 13.672L31.3395 13.2657ZM17.4982 4.45361H14.1957V7.57849H17.4982V4.45361ZM17.4982 8.20349H14.1957V11.3284H17.4982V8.20337V8.20349ZM13.5951 8.20349H10.2926V11.3284H13.5951V8.20337V8.20349ZM9.69198 8.20349H6.38935V11.3284H9.69198V8.20337V8.20349ZM5.78885 11.9534H2.48622V15.0782H5.78872V11.9532L5.78885 11.9534ZM9.69198 11.9534H6.38935V15.0782H9.69198V11.9532V11.9534ZM13.5951 11.9534H10.2926V15.0782H13.5951V11.9532V11.9534ZM17.4984 11.9534H14.1956V15.0782H17.4984V11.9532V11.9534ZM21.4015 11.9534H18.0987V15.0782H21.4015V11.9532V11.9534Z" fill="#2396ED"/>
</svg>
