<svg width="23" height="16" viewBox="0 0 23 16" fill="none" xmlns="http://www.w3.org/2000/svg">
<path d="M22.68 14V2C22.68 0.893333 21.7867 0 20.68 0H2C0.893333 0 0 0.893333 0 2V14C0 15.1067 0.893333 16 2 16H20.68C21.7867 16 22.68 15.1067 22.68 14ZM20.9333 1.85333C21.3733 2.29333 21.1333 2.74667 20.8933 2.97333L15.48 7.93333L20.68 13.3467C20.84 13.5333 20.9467 13.8267 20.76 14.0267C20.5867 14.24 20.1867 14.2267 20.0133 14.0933L14.1867 9.12L11.3333 11.72L8.49333 9.12L2.66667 14.0933C2.49333 14.2267 2.09333 14.24 1.92 14.0267C1.73333 13.8267 1.84 13.5333 2 13.3467L7.2 7.93333L1.78667 2.97333C1.54667 2.74667 1.30667 2.29333 1.74667 1.85333C2.18667 1.41333 2.64 1.62667 3.01333 1.94667L11.3333 8.66667L19.6667 1.94667C20.04 1.62667 20.4933 1.41333 20.9333 1.85333V1.85333Z" fill="white"/>
</svg>
