<svg width="40" height="40" viewBox="0 0 40 40" fill="none" xmlns="http://www.w3.org/2000/svg">
<path d="M40 30.9807C39.4179 31.2009 38.7752 31.2004 38.1934 30.9793C37.6116 30.7583 37.1308 30.3319 36.8417 29.7807L31.0917 21.829L30.2584 20.7174L23.5867 29.7907C23.315 30.3188 22.8603 30.7298 22.3075 30.947C21.7548 31.1642 21.1419 31.1726 20.5834 30.9707L29.18 19.4374L21.1834 9.01902C21.7583 8.81181 22.3872 8.80907 22.964 9.01124C23.5407 9.21342 24.0302 9.60817 24.35 10.129L30.31 18.179L36.3034 10.1624C36.5771 9.64367 37.032 9.24367 37.5814 9.0384C38.1308 8.83314 38.7365 8.83692 39.2834 9.04902L36.18 13.1674L31.9767 18.639C31.86 18.7431 31.7665 18.8708 31.7026 19.0135C31.6386 19.1563 31.6056 19.3109 31.6056 19.4674C31.6056 19.6238 31.6386 19.7784 31.7026 19.9212C31.7665 20.0639 31.86 20.1916 31.9767 20.2957L39.9834 30.9824L40 30.9807ZM0.00335333 19.294L0.703353 15.8357C2.62669 8.99736 10.4667 6.15236 15.86 10.3857C19.0184 12.8674 19.8067 16.3807 19.6517 20.3407H1.86002C1.57169 27.4124 6.67502 31.6824 13.2 29.5007C14.2578 29.1199 15.2046 28.4828 15.9556 27.6462C16.7066 26.8097 17.2384 25.7999 17.5034 24.7074C17.8484 23.5974 18.4167 23.4074 19.46 23.7274C19.2862 25.0813 18.8075 26.3782 18.0601 27.5205C17.3127 28.6629 16.316 29.6208 15.145 30.3224C13.2107 31.3804 10.9914 31.7998 8.80439 31.5205C6.61739 31.2412 4.57468 30.2776 2.96835 28.7674C1.38007 26.9797 0.420147 24.7215 0.23502 22.3374C0.23502 21.9457 0.101687 21.579 0.0116867 21.2274C0.00357338 20.5835 -0.000315595 19.9396 1.99938e-05 19.2957L0.00335333 19.294ZM1.88169 18.8174H17.9717C17.8717 13.6907 14.6367 10.054 10.3217 10.0207C5.51835 9.95402 2.08169 13.5107 1.87002 18.794L1.88169 18.8174Z" fill="white"/>
</svg>
