<svg width="23" height="34" viewBox="0 0 23 34" fill="none" xmlns="http://www.w3.org/2000/svg">
<g clip-path="url(#clip0_52_193)">
<path d="M5.66813 33.9998C8.79613 33.9998 11.3348 31.4612 11.3348 28.3332V22.6665H5.66813C2.54013 22.6665 0.00146484 25.2052 0.00146484 28.3332C0.00146484 31.4612 2.54013 33.9998 5.66813 33.9998Z" fill="#0ACF83"/>
<path d="M0.00146484 17.0002C0.00146484 13.8722 2.54013 11.3335 5.66813 11.3335H11.3348V22.6668H5.66813C2.54013 22.6668 0.00146484 20.1282 0.00146484 17.0002Z" fill="#A259FF"/>
<path d="M0.00170898 5.66667C0.00170898 2.53867 2.54038 0 5.66838 0H11.335V11.3333H5.66838C2.54038 11.3333 0.00170898 8.79467 0.00170898 5.66667Z" fill="#F24E1E"/>
<path d="M11.3347 0H17.0014C20.1294 0 22.668 2.53867 22.668 5.66667C22.668 8.79467 20.1294 11.3333 17.0014 11.3333H11.3347V0Z" fill="#FF7262"/>
<path d="M22.668 17.0002C22.668 20.1282 20.1294 22.6668 17.0014 22.6668C13.8734 22.6668 11.3347 20.1282 11.3347 17.0002C11.3347 13.8722 13.8734 11.3335 17.0014 11.3335C20.1294 11.3335 22.668 13.8722 22.668 17.0002Z" fill="#1ABCFE"/>
</g>
<defs>
<clipPath id="clip0_52_193">
<rect width="22.6695" height="34" fill="white"/>
</clipPath>
</defs>
</svg>
