<svg width="30" height="40" viewBox="0 0 30 40" fill="none" xmlns="http://www.w3.org/2000/svg">
<g clip-path="url(#clip0_52_201)">
<path d="M0.00305176 32.2505L0.244989 31.9118L11.687 10.2008L11.7112 9.97092L6.66744 0.496621C6.24465 -0.296997 5.0549 -0.0963131 4.91633 0.79212L0.00305176 32.2505Z" fill="#FFC24A"/>
<path d="M15.3883 17.1374L19.1439 13.2913L15.3872 6.11978C15.0306 5.44092 14.0349 5.43887 13.6821 6.11978L11.6749 9.94736V10.2733L15.3882 17.1374H15.3883Z" fill="#F4BD62"/>
<path d="M0.00305176 32.2503L0.112681 32.1399L0.511086 31.9781L15.1523 17.3912L15.3379 16.8863L11.6854 9.92627L0.00305176 32.2503Z" fill="#F6820C"/>
<path d="M15.8573 39.6069L29.108 32.2169L25.3241 8.91267C25.2057 8.18355 24.3112 7.89535 23.7893 8.41808L0.00305176 32.2504L13.1778 39.6063C13.5873 39.835 14.0484 39.9551 14.5175 39.9552C14.9865 39.9553 15.4477 39.8354 15.8573 39.6069" fill="#FDE068"/>
<path d="M28.9894 32.1552L25.2341 9.02788C25.1168 8.30424 24.3728 8.00486 23.8549 8.52372L0.150146 32.2053L13.1802 39.4883C13.5866 39.7152 14.0443 39.8344 14.5097 39.8345C14.9752 39.8346 15.4329 39.7157 15.8394 39.489L28.9895 32.1551L28.9894 32.1552Z" fill="#FCCA3F"/>
<path d="M15.8572 39.3889C15.4476 39.6174 14.9864 39.7372 14.5174 39.7371C14.0484 39.737 13.5873 39.617 13.1778 39.3884L0.109157 32.1382L0.00317383 32.2503L13.1778 39.6061C13.5873 39.8348 14.0485 39.9549 14.5175 39.955C14.9865 39.9551 15.4477 39.8352 15.8573 39.6067L29.108 32.2167L29.0755 32.0171L15.8573 39.3891L15.8572 39.3889Z" fill="#EEAB37"/>
</g>
<defs>
<clipPath id="clip0_52_201">
<rect width="29.18" height="40" fill="white"/>
</clipPath>
</defs>
</svg>
