<svg width="25" height="24" viewBox="0 0 25 24" fill="none" xmlns="http://www.w3.org/2000/svg">
<path fill-rule="evenodd" clip-rule="evenodd" d="M12.3038 0C5.50795 0 0 5.50795 0 12.3038C0 17.7389 3.52435 22.3513 8.41427 23.9796C9.02983 24.0906 9.25187 23.7119 9.25187 23.3863C9.25187 23.0939 9.242 22.3192 9.2383 21.2941C5.81511 22.0367 5.09223 19.6436 5.09223 19.6436C4.53465 18.2225 3.72665 17.8438 3.72665 17.8438C2.61026 17.0802 3.81177 17.0975 3.81177 17.0975C5.04782 17.1838 5.69545 18.3656 5.69545 18.3656C6.79334 20.2456 8.5771 19.7028 9.27531 19.3882C9.38756 18.5926 9.7083 18.0498 10.0586 17.7426C7.32748 17.433 4.4557 16.377 4.4557 11.6611C4.4557 10.3202 4.93556 9.2198 5.71889 8.36122C5.5943 8.04913 5.16871 6.79704 5.84101 5.10456C5.84101 5.10456 6.87352 4.77273 9.2235 6.36405C10.2271 6.09102 11.2624 5.95166 12.3025 5.94957C13.3427 5.95126 14.378 6.09063 15.3815 6.36405C17.7327 4.7715 18.764 5.10456 18.764 5.10456C19.4363 6.79704 19.0144 8.04913 18.8861 8.36122C19.6756 9.2198 20.1493 10.3189 20.1493 11.6611C20.1493 16.3894 17.2751 17.4281 14.5341 17.7327C14.972 18.1127 15.3667 18.8627 15.3667 20.0099C15.3667 21.6555 15.3519 22.9829 15.3519 23.3863C15.3519 23.7156 15.5715 24.098 16.1994 23.9771C21.0869 22.3463 24.6075 17.7377 24.6075 12.3038C24.6075 5.50795 19.0996 0 12.3038 0Z" fill="white"/>
</svg>
