<svg width="190" height="96" viewBox="0 0 190 96" fill="none" xmlns="http://www.w3.org/2000/svg">
<path d="M6.5 95.5C6.5 84 12.9 49.8 0.5 29C8.16667 36 9.9 59.1 9.5 63.5C9 69 16.5 41.5 0.5 14C7.66667 23 22.3 40.7 25.5 45.5C29.5 51.5 26.5 48 46.5 2.5C48.6667 15.1667 47.7 29.5 46.5 51.5C48 49 52.6 36.2 53 29C54 36.8333 55.2 58.8 58 60C60.8333 53 67.7 38.2 66.5 29C67.3333 34.1667 69.3 43.5 76.5 45.5C76.1667 37.1667 71.7 16.9 66.5 6.5C76.3333 23.5 98.5 60.7 98.5 69.5" stroke="#4ADE80"/>
<path d="M71.5 83.5C71.6667 68.6667 76.3 33.7 89.5 18.5C87.5 32 83.1 62.8 85.5 72C87.5 70 94.4 58 92 36C95.5 46 98.9 70.5 98.5 78.5C102.667 73 103.2 59.1 102 7.5C107 34.5 123.8 80.4 121 88C119.333 78 113.3 46 122.5 24C120.167 40.6667 125.1 82 129.5 88C132 82 131 60.6 131 39C131.333 44.5 135.6 60.2 140 63C143.333 56.3333 143.2 47.6 140 34C144 46.1667 157.2 64.4 154 72C153.333 65 145.9 49.5 155.5 29.5C155.833 40.6667 165.5 62.9 167.5 76.5C171.333 69.5 175.6 60.5 174 50.5C172.5 62.5 173.4 79.9 177 83.5C180.333 82.5 183.9 78 185.5 66C184.333 73.3333 186.2 91.9 189 93.5" stroke="#4ADE80"/>
<path d="M31 89C31.8333 79.8333 30.4 63.9 18 49.5C25 57 39.3 67.5 40.5 73.5C41.8333 67 39.2 58.6 36 47C40.8333 58.5 54.9 75.5 54.5 81.5" stroke="#4ADE80"/>
</svg>
