<svg width="197" height="103" viewBox="0 0 197 103" fill="none" xmlns="http://www.w3.org/2000/svg">
<path d="M13.5 103C13.5 91.5 13.4 61.3 1 40.5C8.66667 47.5 16.9 66.6 16.5 71C16 76.5 26.5 45.5 10.5 18C17.6667 27 29.3 48.2 32.5 53C36.5 59 13.5 48 33.5 2.5C35.6667 15.1667 54.7 37 53.5 59C55 56.5 63.1 45.2 63.5 38C64.5 45.8333 62.2 66.3 65 67.5C67.8333 60.5 63.7 38.7 62.5 29.5C63.3333 34.6667 76.3 51 83.5 53C83.1667 44.6667 85.7 24.9 80.5 14.5C90.3333 31.5 105.5 68.2 105.5 77" stroke="#4ADE80"/>
<path d="M78.5 91C78.6667 76.1667 89.8 43.7 103 28.5C101 42 90.1 70.3 92.5 79.5C94.5 77.5 105.4 68 103 46C106.5 56 105.9 78 105.5 86C109.667 80.5 121.2 63.6 120 12C125 39 130.8 87.9 128 95.5C126.333 85.5 125.3 55 134.5 33C132.167 49.6667 128.6 89.5 133 95.5C135.5 89.5 143 67.6 143 46C143.333 51.5 142.6 67.7 147 70.5C150.333 63.8333 148.2 50.6 145 37C149 49.1667 164.2 71.9 161 79.5C160.333 72.5 157.9 54 167.5 34C167.833 45.1667 172.5 70.4 174.5 84C178.333 77 178.1 66 176.5 56C175 68 180.4 87.4 184 91C187.333 90 185.4 83.5 187 71.5C185.833 78.8333 193.2 99.4 196 101" stroke="#4ADE80"/>
<path d="M38 96.5C38.8333 87.3333 39.4 62.9 27 48.5C34 56 46.3 75 47.5 81C48.8333 74.5 50.7 63.6 47.5 52C52.3333 63.5 61.9 83 61.5 89" stroke="#4ADE80"/>
</svg>
