<svg width="197" height="109" viewBox="0 0 197 109" fill="none" xmlns="http://www.w3.org/2000/svg">
<path d="M13.5 109C13.5 97.5 13.4 67.3 1 46.5C8.66667 53.5 20.9 70.6 20.5 75C20 80.5 21.5 55 5.5 27.5C12.6667 36.5 29.3 54.2 32.5 59C36.5 65 24 47.5 44 2C46.1667 14.6667 54.7 43 53.5 65C55 62.5 61.6 56.2 62 49C63 56.8333 62.2 72.3 65 73.5C67.8333 66.5 68.2 46.7 67 37.5C67.8333 42.6667 76.3 57 83.5 59C83.1667 50.6667 79.7 35.4 74.5 25C84.3333 42 105.5 74.2 105.5 83" stroke="#4ADE80"/>
<path d="M78.5 97C78.6667 82.1667 85.3 49.7 98.5 34.5C96.5 48 90.1 76.3 92.5 85.5C94.5 83.5 94.9 74 92.5 52C96 62 105.9 84 105.5 92C109.667 86.5 114.2 69.1 113 17.5C118 44.5 130.8 93.9 128 101.5C126.333 91.5 129.3 63 138.5 41C136.167 57.6667 128.6 95.5 133 101.5C135.5 95.5 139 77.1 139 55.5C139.333 61 142.6 73.7 147 76.5C150.333 69.8333 150.2 54.6 147 41C151 53.1667 164.2 77.9 161 85.5C160.333 78.5 164.9 61 174.5 41C174.833 52.1667 172.5 76.4 174.5 90C178.333 83 183.6 65.5 182 55.5C180.5 67.5 180.4 93.4 184 97C187.333 96 190.9 88.5 192.5 76.5C191.333 83.8333 193.2 105.4 196 107" stroke="#4ADE80"/>
<path d="M38 102.5C38.8333 93.3333 39.4 68.9 27 54.5C34 62 46.3 81 47.5 87C48.8333 80.5 50.7 69.6 47.5 58C52.3333 69.5 61.9 89 61.5 95" stroke="#4ADE80"/>
</svg>
