<svg width="200" height="112" viewBox="0 0 200 112" fill="none" xmlns="http://www.w3.org/2000/svg">
<path d="M16.5 111.5C16.5 100 13.4 71.8 1 51C8.66667 58 23.9 73.1 23.5 77.5C23 83 26 56 10 28.5C17.1667 37.5 32.3 56.7 35.5 61.5C39.5 67.5 31.5 47.5 51.5 2C53.6667 14.6667 57.7 45.5 56.5 67.5C58 65 61.1 58.2 61.5 51C62.5 58.8333 65.2 74.8 68 76C70.8333 69 76.2 52.7 75 43.5C75.8333 48.6667 79.3 59.5 86.5 61.5C86.1667 53.1667 84.2 33.9 79 23.5C88.8333 40.5 108.5 76.7 108.5 85.5" stroke="#4ADE80"/>
<path d="M81.5 99.5C81.6667 84.6667 85.3 51.2 98.5 36C96.5 49.5 93.1 78.8 95.5 88C97.5 86 100.9 76.5 98.5 54.5C102 64.5 108.9 86.5 108.5 94.5C112.667 89 120.7 65.1 119.5 13.5C124.5 40.5 133.8 96.4 131 104C129.333 94 128.3 68.5 137.5 46.5C135.167 63.1667 131.6 98 136 104C138.5 98 143.5 80.6 143.5 59C143.833 64.5 145.6 76.2 150 79C153.333 72.3333 159.2 55.6 156 42C160 54.1667 167.2 80.4 164 88C163.333 81 164.4 62 174 42C174.333 53.1667 175.5 78.9 177.5 92.5C181.333 85.5 188.6 69 187 59C185.5 71 183.4 95.9 187 99.5C190.333 98.5 197.4 93.5 199 81.5C197.833 88.8333 196.2 107.9 199 109.5" stroke="#4ADE80"/>
<path d="M41 105C41.8333 95.8333 40.4 73.9 28 59.5C35 67 49.3 83.5 50.5 89.5C51.8333 83 53.7 67.1 50.5 55.5C55.3333 67 64.9 91.5 64.5 97.5" stroke="#4ADE80"/>
</svg>
