<svg width="20" height="20" viewBox="0 0 20 20" fill="none" xmlns="http://www.w3.org/2000/svg">
<path d="M11.544 8.45596C10.7249 7.6372 9.61414 7.17725 8.45599 7.17725C7.29784 7.17725 6.1871 7.6372 5.36799 8.45596L2.27899 11.544C1.45987 12.3631 0.999695 13.474 0.999695 14.6325C0.999695 15.7909 1.45987 16.9018 2.27899 17.721C3.09811 18.5401 4.20908 19.0003 5.36749 19.0003C6.52591 19.0003 7.63687 18.5401 8.45599 17.721L9.99999 16.177" stroke="white" stroke-width="2" stroke-linecap="round" stroke-linejoin="round"/>
<path d="M8.45599 11.5441C9.2751 12.3628 10.3858 12.8228 11.544 12.8228C12.7021 12.8228 13.8129 12.3628 14.632 11.5441L17.721 8.45605C18.5401 7.63693 19.0003 6.52597 19.0003 5.36755C19.0003 4.20914 18.5401 3.09818 17.721 2.27905C16.9019 1.45993 15.7909 0.999756 14.6325 0.999756C13.4741 0.999756 12.3631 1.45993 11.544 2.27905L9.99999 3.82305" stroke="white" stroke-width="2" stroke-linecap="round" stroke-linejoin="round"/>
</svg>
