<svg width="88" height="20" viewBox="0 0 88 20" fill="none" xmlns="http://www.w3.org/2000/svg">
<path d="M28.52 17C28.1733 17 27.8733 16.8733 27.62 16.62C27.38 16.3667 27.26 16.0667 27.26 15.72V4.66C27.26 4.03333 27.4533 3.57333 27.84 3.28C28.24 2.97333 28.8467 2.82 29.66 2.82V14.9H35.32C35.8933 14.9 36.3267 15.08 36.62 15.44C36.9267 15.7867 37.08 16.3067 37.08 17H28.52ZM40.7389 11.96L35.7789 3.08C35.8989 3.01333 36.0789 2.95333 36.3189 2.9C36.5589 2.84667 36.7789 2.82 36.9789 2.82C37.4189 2.82 37.7856 2.91333 38.0789 3.1C38.3856 3.27333 38.6456 3.55333 38.8589 3.94L41.8989 9.62L41.3789 10.66L41.5789 10.76L45.0389 3.94C45.4122 3.19333 46.0389 2.82 46.9189 2.82C47.1189 2.82 47.3389 2.84667 47.5789 2.9C47.8189 2.95333 47.9989 3.01333 48.1189 3.08L43.1589 11.96V15.34C43.1589 15.9267 42.9522 16.38 42.5389 16.7C42.1256 17.02 41.5256 17.18 40.7389 17.18V11.96ZM50.2764 4.78C50.2764 4.16667 50.4697 3.68667 50.8564 3.34C51.2564 2.99333 51.8031 2.82 52.4964 2.82L59.5764 13.8L59.7564 13.64L59.0164 12.42V2.82C59.8031 2.82 60.3964 2.97333 60.7964 3.28C61.1964 3.58667 61.3964 4.04667 61.3964 4.66V15.46C61.3964 15.9267 61.2097 16.3333 60.8364 16.68C60.4631 17.0133 60.0097 17.18 59.4764 17.18L52.0964 5.74L51.9164 5.88L52.6564 7.12V15.34C52.6564 15.94 52.4497 16.4 52.0364 16.72C51.6364 17.0267 51.0497 17.18 50.2764 17.18V4.78ZM64.5092 4.1C64.5092 3.79333 64.6226 3.53333 64.8492 3.32C65.0892 3.10667 65.3826 3 65.7292 3H74.6292C74.6292 3.72 74.4959 4.24667 74.2292 4.58C73.9759 4.91333 73.5626 5.08 72.9892 5.08H66.9092V8.9H72.3292C72.3292 9.62 72.1959 10.1467 71.9292 10.48C71.6759 10.8133 71.2692 10.98 70.7092 10.98H66.9092V14.92H73.4092C73.9692 14.92 74.3759 15.0867 74.6292 15.42C74.8959 15.7533 75.0292 16.28 75.0292 17H65.7292C65.3826 17 65.0892 16.8933 64.8492 16.68C64.6226 16.4667 64.5092 16.2 64.5092 15.88V4.1Z" fill="white"/>
<path d="M0.885906 2.14765L0 2.95302L16.255 20L16.2148 19.745L16.2013 19.5436V19.1812L16.2953 18.9396V18.7785L16.2416 18.6711L16.2013 18.6175V18.5369V18.2282L16.1342 18.1342L16.0671 18.0134L16.0403 17.8121V17.5839L16.0671 17.4765L16.1342 17.3289L16.2013 17.1544V16.8859L16.1342 16.7785L16.0671 16.6846L16.0403 16.604V16.5101L16.1074 16.4027L16.1745 16.2416L16.2953 16.0537V15.8792L16.2416 15.7852L16.1476 15.6644V15.4899L16.2013 15.3423V15.1678L16.1611 15.0738L16.1074 14.9664L16.094 14.349L15.9597 14L15.9195 13.8792L16.0805 13.557V13.2215L16.0537 13.1544L15.9597 13.0067L15.8389 12.8725L15.7047 12.7651L15.651 12.698V12.6443L15.6779 12.5503V12.4698V12.2819V12.1342L15.6242 11.9866L15.557 11.8658L15.4765 11.745L15.4094 11.6644L15.2886 11.5705V10.8859C15.2886 10.8752 15.2707 10.7919 15.2617 10.7517L15.1812 10.6309L15.1141 10.5369L15.0604 10.4698V10.3087V10.2013L15.0336 10.1342L14.9799 10.094L14.9128 10.0537L14.8322 10L14.7919 9.93289L14.7517 9.89262V9.81208V9.69128L14.7785 9.57047L14.8054 9.48993L14.8591 9.42282V9.34228L14.8322 9.27517L14.7919 9.20805L14.6846 9.18121L14.604 9.15436L14.5235 9.08725L14.4564 9.04698L14.4161 8.96644L14.3893 8.91275V8.63087L14.3356 8.53691L14.2148 8.4698L14.0537 8.42953L13.8792 8.38926C13.8166 8.38031 13.6859 8.36242 13.6644 8.36242C13.643 8.36242 13.5749 8.35347 13.5436 8.34899L13.4765 8.28188L13.4094 8.20134L13.3289 8.09396L13.2215 8L13.1409 7.97315L13.047 7.94631L12.8993 7.93289L12.8188 7.90604H12.6846H12.5235L12.4832 7.81208L12.4295 7.69128L12.3758 7.58389L12.3221 7.51678L12.2148 7.43624L12.1074 7.4094H12V7.30201L12.0268 7.2349L12.1879 7.08725H12.2953L12.5906 7.32886L12.6577 7.30201L12.7248 7.28859L12.9262 7.30201L13.1141 7.43624H13.2215H13.4362L13.6107 7.4094L13.8792 7.38255L14.1879 7.4094H14.3624L14.4966 7.32886L14.6309 7.22148H14.8054L14.9799 7.31544H15.1678L15.2081 7.27517L15.3289 7.16779L15.4497 6.95302L15.5705 6.83221L15.6242 6.80537H15.7047L15.745 6.83221L15.8255 6.85906L15.9195 6.89933H16.0134L16.094 6.83221L16.1879 6.7651L16.2416 6.67114L16.2685 6.55034L16.3087 6.44295L16.3758 6.34899L16.4832 6.26846L16.9664 6.25503L17.047 6.18792L17.2215 6L17.4094 5.74497V5.66443L17.3691 5.61074L17.3154 5.55705L17.2215 5.42282L17.1812 5.3557L17.1141 5.18121L17.0336 5.04698L16.9262 4.9396L16.8054 4.83221L16.6846 4.73826L16.5906 4.67114L16.5638 4.60403L16.5369 4.53691L16.5101 4.40268L16.4832 4.32215L16.443 4.21477L16.3624 4.14765H16.2819L16.1611 4.10738L16.094 4.02685L16.0268 3.97315L15.9866 3.85235L15.9597 3.71812L15.8926 3.58389L15.8255 3.51678L15.6913 3.46309L15.5302 3.38255L15.4094 3.26175L15.3289 3.10067L15.2081 2.9396L15.1007 2.85906L14.9933 2.79195H14.8859L14.7785 2.81879L14.6309 2.85906L14.5369 2.81879L14.4564 2.71141L14.4161 2.61745L14.3221 2.55034L14.2416 2.53691L14.1074 2.55034L13.9866 2.51007L13.8658 2.44295L13.7852 2.34899L13.6913 2.21477L13.6107 2.16107L12.7785 2.14765L12.5906 2.09396L12.4027 1.98658L12.2819 1.85235L12.2416 1.73154L12.2819 1.61074L12.6309 1.18121L12.6577 1.11409V0.85906L12.6846 0.778524L12.8054 0.644295L12.9799 0.510067V0.456376L12.8322 0.362416L12.6846 0.308725H12.5772H12.4966L12.4295 0.362416L12.2819 0.348993L12.1879 0.241611L12.094 0.134228L11.9329 0.0805369L11.6644 0.0939597L11.5034 0.174497L11.2081 0.161074L11.047 0.0536913L10.9664 0.0268456H10.7383L10.5772 0.107383L10.3893 0.241611H10.1611L10.0537 0.174497L9.95973 0.0939597L9.79866 0.0268456L9.58389 0L9.43624 0.0268456L9.31544 0.0939597L9.12752 0.255034H8.81879L8.71141 0.214765L8.53691 0.147651L8.40268 0.120805L8.2953 0.147651L7.98658 0.42953L7.93289 0.402685L7.77181 0.375839H7.57047L7.28859 0.402685L6.97987 0.483222L6.65772 0.590604L6.30872 0.751678L6.06711 0.899329L5.78523 1.19463L5.58389 1.51678L5.42282 1.97315C5.3915 2.12528 5.32886 2.47785 5.32886 2.67114C5.32886 2.86443 5.3736 3.09172 5.39597 3.18121C5.27517 4.95302 4.26846 5.54362 4.06711 5.58389C3.86577 5.62416 3.67785 5.63758 3.42282 5.59732C3.21879 5.5651 2.97092 5.38702 2.87248 5.30201L2.63087 5.04698L2.28188 4.63087L1.71812 3.97315L1.20805 3.2349C0.896644 2.55839 0.863535 2.22819 0.885906 2.14765Z" fill="white"/>
</svg>
