<svg width="28" height="22" viewBox="0 0 28 22" fill="none" xmlns="http://www.w3.org/2000/svg">
<path d="M24.7499 0H5.49999C3.98337 0 2.75 1.23337 2.75 2.74999V9.62497H5.49999V5.49998L14.3 12.1C14.5381 12.2783 14.8275 12.3746 15.125 12.3746C15.4224 12.3746 15.7119 12.2783 15.95 12.1L24.7499 5.49998V17.8749H13.75V20.6249H24.7499C26.2665 20.6249 27.4999 19.3916 27.4999 17.8749V2.74999C27.4999 1.23337 26.2665 0 24.7499 0ZM15.125 9.28122L6.41574 2.74999H23.8342L15.125 9.28122Z" fill="white"/>
<path d="M0 11H9.62497V13.75H0V11ZM2.74999 15.125H11V17.875H2.74999V15.125ZM6.87498 19.25H12.375V22H6.87498V19.25Z" fill="white"/>
</svg>
