<svg width="44" height="40" viewBox="0 0 44 40" fill="none" xmlns="http://www.w3.org/2000/svg">
<path d="M34.6916 25.85C34.848 25.7602 34.9781 25.6308 35.0687 25.4749C35.1593 25.3189 35.2073 25.1419 35.2079 24.9616L35.2264 19.0109C35.2269 18.8305 35.2749 18.6535 35.3655 18.4975C35.4561 18.3416 35.5862 18.2122 35.7426 18.1224L38.9683 16.2695C39.1246 16.1797 39.3018 16.1325 39.4821 16.1328C39.6624 16.1331 39.8394 16.1808 39.9955 16.2711C40.1515 16.3614 40.2811 16.4912 40.3712 16.6473C40.4612 16.8035 40.5087 16.9806 40.5087 17.1609V27.9795C40.5087 28.1604 40.461 28.3381 40.3703 28.4946C40.2797 28.6512 40.1493 28.781 39.9925 28.8711L27.8187 35.8634C27.6632 35.9527 27.487 35.9998 27.3077 36C27.1284 36.0002 26.9521 35.9534 26.7964 35.8644L17.2428 30.4001C17.0854 30.3102 16.9545 30.1803 16.8635 30.0236C16.7725 29.8669 16.7245 29.6889 16.7244 29.5076V24.0525C16.7244 24.0464 16.7316 24.0424 16.7378 24.0453C16.7429 24.0484 16.7501 24.0453 16.7501 24.038V24.0319C16.7501 24.0279 16.7522 24.0237 16.7564 24.0217L24.6248 19.5014C24.6321 19.4972 24.6289 19.4859 24.6206 19.4859C24.6184 19.4859 24.6163 19.485 24.6148 19.4835C24.6133 19.482 24.6124 19.4799 24.6124 19.4777L24.6279 14.1296C24.6286 13.9487 24.5816 13.7708 24.4917 13.6139C24.4017 13.457 24.272 13.3266 24.1155 13.2359C23.9591 13.1452 23.7815 13.0973 23.6006 13.0971C23.4198 13.0969 23.242 13.1445 23.0854 13.2349L17.2376 16.6048C17.0815 16.6947 16.9046 16.742 16.7245 16.742C16.5444 16.742 16.3674 16.6947 16.2114 16.6048L10.345 13.227C10.1887 13.137 10.0115 13.0896 9.83115 13.0898C9.6508 13.0899 9.47365 13.1374 9.31748 13.2276C9.16131 13.3178 9.03162 13.4476 8.94142 13.6037C8.85121 13.7599 8.80368 13.9371 8.80357 14.1174V23.7832C8.80371 23.9634 8.75651 24.1404 8.6667 24.2966C8.57689 24.4528 8.44762 24.5826 8.29184 24.6731C8.13607 24.7636 7.95925 24.8116 7.77909 24.8122C7.59894 24.8129 7.42177 24.7662 7.26533 24.6769L4.0097 22.8153C3.85205 22.7252 3.72106 22.5951 3.63003 22.438C3.539 22.2809 3.49119 22.1025 3.49146 21.921L3.52038 5.02606C3.52084 4.84601 3.56857 4.66924 3.6588 4.51342C3.74902 4.35761 3.87858 4.22822 4.03452 4.1382C4.19045 4.04818 4.36728 4.00068 4.54733 4.00045C4.72739 4.00023 4.90434 4.04729 5.0605 4.13692L16.2124 10.5418C16.3682 10.6313 16.5448 10.6784 16.7245 10.6784C16.9042 10.6784 17.0807 10.6313 17.2366 10.5418L28.3851 4.13663C28.5415 4.04679 28.7188 3.99967 28.8992 4C29.0796 4.00034 29.2567 4.04811 29.4127 4.13854C29.5688 4.22896 29.6984 4.35885 29.7884 4.51516C29.8784 4.67148 29.9257 4.84872 29.9255 5.0291V21.9279C29.9256 22.1087 29.8781 22.2863 29.7876 22.4428C29.6972 22.5993 29.5671 22.7293 29.4105 22.8195L23.5719 26.182C23.415 26.2724 23.2848 26.4026 23.1944 26.5594C23.104 26.7162 23.0567 26.8942 23.0571 27.0752C23.0575 27.2562 23.1057 27.4339 23.1968 27.5903C23.2879 27.7468 23.4187 27.8764 23.5759 27.966L26.7966 29.7996C26.9522 29.8881 27.1283 29.9345 27.3073 29.9341C27.4864 29.9338 27.6623 29.8866 27.8176 29.7974L34.6918 25.8498L34.6916 25.85ZM35.3672 10.691C35.3673 10.8729 35.4157 11.0514 35.5074 11.2085C35.599 11.3656 35.7307 11.4955 35.889 11.5851C36.0472 11.6747 36.2264 11.7207 36.4083 11.7184C36.5901 11.7161 36.7681 11.6657 36.9241 11.5722L40.009 9.72132C40.1612 9.63007 40.2873 9.50096 40.3749 9.34654C40.4624 9.19212 40.5085 9.01766 40.5087 8.84014V5.06828C40.5084 4.88651 40.4599 4.70807 40.3682 4.55114C40.2764 4.39421 40.1447 4.2644 39.9865 4.17494C39.8282 4.08548 39.6491 4.03957 39.4674 4.04189C39.2856 4.0442 39.1077 4.09465 38.9518 4.18811L35.8671 6.03897C35.7147 6.13021 35.5886 6.25934 35.501 6.41379C35.4134 6.56824 35.3673 6.74274 35.3672 6.9203V10.692V10.691V10.691Z" fill="#007FFF"/>
</svg>
