<svg width="51" height="40" viewBox="0 0 51 40" fill="none" xmlns="http://www.w3.org/2000/svg">
<g clip-path="url(#clip0_131_358)">
<path d="M15.3983 25.4357L16.9142 30.3542C17.2547 31.4709 17.3968 32.2505 17.3399 32.6948C18.1689 30.4744 18.7482 28.0546 19.0778 25.4357H20.9005C20.1168 29.6994 19.083 32.7978 17.7999 34.7306C16.8002 36.2201 15.705 36.9648 14.5123 36.9648C14.1944 36.9648 13.8023 36.8687 13.3371 36.678V35.6502C13.5644 35.6835 13.8311 35.7013 14.1377 35.7013C14.6941 35.7013 15.1426 35.5471 15.4837 35.2394C15.8922 34.8644 16.0967 34.4429 16.0967 33.9758C16.0967 33.6569 15.9372 33.0023 15.6197 32.0121L13.5076 25.4357H15.3982H15.3983ZM3.79668 22.4126L6.57319 30.884H6.59033L9.38389 22.4126H11.6663C12.166 26.6138 12.4612 30.4577 12.5518 33.942H10.6276C10.5599 30.6849 10.3723 27.6222 10.0656 24.7532H10.0489L7.11865 33.942H5.65324L2.74073 24.7532H2.72359C2.50751 27.5085 2.37151 30.5712 2.31481 33.942H0.560059C0.673457 29.8425 0.957245 25.9997 1.41142 22.4126H3.79678H3.79668Z" fill="#00758F"/>
<path d="M34.9007 22.2418C37.8874 22.2418 39.3807 24.1499 39.3807 27.9642C39.3807 30.037 38.9316 31.6026 38.0343 32.6603C37.8726 32.8536 37.6938 33.0206 37.5056 33.1753L39.6191 34.2203L39.6171 34.2202L38.8667 35.5161L36.1142 33.9101C35.658 34.0453 35.156 34.1128 34.609 34.1128C33.1425 34.1128 32.0471 33.6854 31.3228 32.8317C30.5279 31.8873 30.1306 30.4005 30.1306 28.374C30.1306 26.3129 30.5789 24.7532 31.4766 23.6942C32.2941 22.7254 33.4357 22.2417 34.9007 22.2417V22.2418ZM25.7548 22.2586C26.8223 22.2586 27.7929 22.5442 28.6671 23.1134L28.2231 24.1029C27.475 23.7849 26.7374 23.6253 26.0101 23.6253C25.4199 23.6253 24.9651 23.7673 24.6481 24.0531C24.3294 24.3364 24.1322 24.701 24.1322 25.1454C24.1322 25.8284 24.6187 26.4206 25.517 26.9209C25.8113 27.0818 26.1046 27.2445 26.3968 27.4091L26.4639 27.4468L26.4975 27.4657L26.5646 27.5034L26.5981 27.5223L26.6651 27.5601C27.3451 27.9435 27.985 28.3094 27.985 28.3094C28.8832 28.947 29.331 29.6268 29.331 30.7465C29.331 31.7243 28.9727 32.5269 28.2584 33.155C27.5436 33.7803 26.5833 34.0938 25.3807 34.0938C24.256 34.0938 23.166 33.7329 22.1101 33.0173L22.604 32.0269C23.5127 32.4823 24.3349 32.7098 25.0733 32.7098C25.7657 32.7098 26.3078 32.5552 26.6999 32.2499C27.0913 31.9423 27.3257 31.5134 27.3257 30.9695C27.3257 30.2849 26.8496 29.6997 25.976 29.2088C25.7025 29.0577 25.4299 28.9052 25.1581 28.7512L25.0912 28.7133C24.9683 28.6438 24.8444 28.5735 24.7231 28.5046L24.6574 28.4672C24.0675 28.1317 23.5575 27.8385 23.5575 27.8385C22.6842 27.1998 22.2463 26.5144 22.2463 25.3851C22.2463 24.4511 22.5729 23.6962 23.225 23.1219C23.8787 22.5463 24.7221 22.2586 25.7548 22.2586ZM42.8907 22.4129V32.524H46.5185V33.9423H41.0508V22.4129H42.8907ZM48.5343 32.5284V32.7681H48.1355V33.941H47.8306V32.7681H47.4162V32.5284H48.5344H48.5343ZM49.2708 32.5284L49.6538 33.4913L50.0056 32.5284H50.4379V33.941H50.1505V32.866L49.7501 33.941H49.5428L49.1418 32.866H49.1264V33.941H48.8545V32.5284H49.2709H49.2708ZM34.7129 23.6597C32.9529 23.6597 32.0724 25.1122 32.0724 28.0154C32.0724 29.6783 32.3057 30.8842 32.7715 31.6358C33.2029 32.3314 33.8785 32.6785 34.7984 32.6785C36.5585 32.6785 37.4388 31.2147 37.4388 28.2883C37.4388 26.6486 37.2055 25.4531 36.7403 24.7011C36.3085 24.0071 35.6331 23.6597 34.713 23.6597H34.7129Z" fill="#F29111"/>
<path d="M30.0999 3.7144C30.6837 2.27977 32.7252 3.36621 33.5174 3.86735C33.7116 3.99273 33.9343 4.25762 34.1569 4.35553C34.5042 4.36916 34.8512 4.39634 35.1991 4.41086C35.8517 4.5642 36.4629 4.68949 36.9771 4.98233C39.3666 6.38958 40.9221 7.82362 42.3537 10.1923C42.6596 10.694 42.8125 11.237 43.0624 11.7799C43.4092 12.5892 43.7989 13.4387 44.2014 14.2039C44.3817 14.5667 44.5211 14.9701 44.7713 15.2765C44.8691 15.4166 45.1466 15.4579 45.3125 15.5416C45.7712 15.779 46.3269 15.9593 46.7582 16.2379C47.5638 16.7402 48.3427 17.3388 49.0508 17.9515C49.3147 18.1881 49.4945 18.5229 49.746 18.7731V18.8993C49.5228 18.9678 49.3004 19.038 49.0777 19.0942C48.5915 19.2191 48.1608 19.1908 47.6891 19.3158C47.3976 19.4004 47.0357 19.5119 46.73 19.5403L46.7582 19.5687C46.9381 20.0826 47.9111 20.5006 48.3562 20.8079C48.8966 21.198 49.3975 21.6711 49.8006 22.2144C49.9398 22.353 50.079 22.4792 50.2176 22.6174C50.3144 22.7575 50.3417 22.9387 50.4397 23.0636V23.1059C50.3312 23.0676 50.2531 22.9945 50.1792 22.9182L50.1351 22.8721C50.0909 22.8263 50.0464 22.7813 49.9956 22.7442C49.689 22.5347 49.3844 22.2841 49.0777 22.0894C48.5505 21.7549 47.939 21.5607 47.3976 21.2249C47.0915 21.0299 46.7997 20.8079 46.508 20.5848C46.2435 20.3893 45.9522 20.0138 45.786 19.7352C45.6881 19.5813 45.6746 19.4004 45.5628 19.289C45.5828 19.1031 45.7532 19.0478 45.9251 19.0024L45.9647 18.992C46.024 18.9766 46.082 18.9612 46.1327 18.9408C46.855 18.6342 47.7161 18.5229 48.8281 18.5508C48.7862 18.2716 48.0914 17.9237 47.8695 17.7565C47.4243 17.4356 46.9529 17.1008 46.4806 16.8087C46.2303 16.6557 45.799 16.5441 45.5218 16.4191C45.1466 16.2658 44.3128 16.1125 44.1049 15.8204C43.7517 15.36 43.498 14.8109 43.2518 14.2561L43.1847 14.1048C43.1624 14.0543 43.14 14.0039 43.1175 13.9535C42.8264 13.2854 42.4648 12.589 42.173 11.905C42.0205 11.5713 41.9504 11.2785 41.7833 10.9584C40.7695 8.99463 39.2689 7.35045 37.4496 6.19416C36.8517 5.81791 36.185 5.46973 35.4491 5.2331C35.032 5.10713 34.5315 5.17679 34.0872 5.08014H33.7947C33.5451 5.00981 33.3367 4.74521 33.142 4.6057C32.7119 4.31363 32.2811 4.11753 31.7667 3.90914C31.5865 3.82555 31.0718 3.63091 30.8921 3.78415C30.7809 3.81211 30.7245 3.8541 30.6971 3.96574C30.5864 4.13233 30.6837 4.38329 30.7526 4.53692C30.9613 4.98214 31.2528 5.24673 31.5174 5.62298C31.7528 5.95664 32.0451 6.33288 32.212 6.69568C32.5721 7.47554 32.7397 8.33957 33.0734 9.11932C33.1971 9.41256 33.3928 9.74623 33.573 10.0107C33.7256 10.2207 34.0032 10.3725 34.0872 10.6382C34.2545 10.9168 33.8366 11.8362 33.7399 12.1282C33.3779 13.2706 33.4481 14.8587 33.8648 15.849L33.8871 15.9012L33.9093 15.9541C34.0614 16.3168 34.2243 16.7074 34.6289 16.8088C34.6568 16.7811 34.6289 16.7956 34.6842 16.7811C34.7821 16.0146 34.8096 15.2764 35.0738 14.6767C35.2265 14.3017 35.5313 14.0367 35.7403 13.7306C35.8796 13.814 35.8796 14.0654 35.9626 14.2318C36.1434 14.6634 36.3376 15.1365 36.5605 15.5694C37.018 16.4608 37.5328 17.325 38.116 18.1048C38.3113 18.3833 38.5885 18.6899 38.8385 18.9407C38.9498 19.0379 39.0745 19.094 39.1582 19.219H39.1855V19.2611C38.7687 19.1074 38.5045 18.6762 38.1721 18.4245C37.5463 17.9513 36.7968 17.2407 36.3655 16.5589C36.185 16.1675 35.99 15.7923 35.7955 15.4028V15.3746C35.7124 15.4859 35.7403 15.5964 35.6987 15.7647C35.5183 16.4608 35.6572 17.2549 35.032 17.5052C34.3234 17.7985 33.7948 17.0321 33.573 16.6838C32.8641 15.5278 32.67 13.5776 33.1698 12.0034C33.2809 11.6549 33.296 11.237 33.4899 10.9587C33.448 10.7072 33.2541 10.6384 33.142 10.4843C32.9475 10.2209 32.781 9.91399 32.6288 9.62143C32.3363 9.04996 32.1282 8.36714 31.9062 7.75426C31.8086 7.50398 31.7806 7.25273 31.6833 7.01581C31.5173 6.65418 31.2113 6.29138 30.9752 5.97145C30.6556 5.51162 29.7246 4.62041 30.0999 3.7144ZM34.6565 6.44365C34.6936 6.48087 34.7384 6.5134 34.7848 6.54546L34.8407 6.58384C34.9152 6.63547 34.9874 6.68983 35.0317 6.76387C35.1018 6.86188 35.1149 6.95862 35.1988 7.05682C35.1988 7.39166 35.1018 7.61426 34.9059 7.75299C34.9059 7.75299 34.8925 7.76761 34.8788 7.78124C34.7677 7.55805 34.6704 7.33603 34.5586 7.11303C34.4208 6.91838 34.2261 6.76397 34.1139 6.54156H34.0869V6.5136C34.2545 6.4722 34.4208 6.44365 34.6565 6.44365Z" fill="#00758F"/>
</g>
<defs>
<clipPath id="clip0_131_358">
<rect width="49.8865" height="34" fill="white" transform="translate(0.556641 3)"/>
</clipPath>
</defs>
</svg>
