<svg width="55" height="40" viewBox="0 0 55 40" fill="none" xmlns="http://www.w3.org/2000/svg">
<g clip-path="url(#clip0_131_358)">
<path d="M17.3983 25.4357L18.9142 30.3542C19.2547 31.4709 19.3968 32.2505 19.3399 32.6948C20.1689 30.4744 20.7482 28.0546 21.0778 25.4357H22.9005C22.1168 29.6994 21.083 32.7978 19.7999 34.7306C18.8002 36.2201 17.705 36.9648 16.5123 36.9648C16.1944 36.9648 15.8023 36.8687 15.3371 36.678V35.6502C15.5644 35.6835 15.8311 35.7013 16.1377 35.7013C16.6941 35.7013 17.1426 35.5471 17.4837 35.2394C17.8922 34.8644 18.0967 34.4429 18.0967 33.9758C18.0967 33.6569 17.9372 33.0023 17.6197 32.0121L15.5076 25.4357H17.3982H17.3983ZM5.79668 22.4126L8.57319 30.884H8.59033L11.3839 22.4126H13.6663C14.166 26.6138 14.4612 30.4577 14.5518 33.942H12.6276C12.5599 30.6849 12.3723 27.6222 12.0656 24.7532H12.0489L9.11865 33.942H7.65324L4.74073 24.7532H4.72359C4.50751 27.5085 4.37151 30.5712 4.31481 33.942H2.56006C2.67346 29.8425 2.95724 25.9997 3.41142 22.4126H5.79678H5.79668Z" fill="#00758F"/>
<path d="M36.9007 22.2418C39.8874 22.2418 41.3807 24.1499 41.3807 27.9642C41.3807 30.037 40.9316 31.6026 40.0343 32.6603C39.8726 32.8536 39.6938 33.0206 39.5056 33.1753L41.6191 34.2203L41.6171 34.2202L40.8667 35.5161L38.1142 33.9101C37.658 34.0453 37.156 34.1128 36.609 34.1128C35.1425 34.1128 34.0471 33.6854 33.3228 32.8317C32.5279 31.8873 32.1306 30.4005 32.1306 28.374C32.1306 26.3129 32.5789 24.7532 33.4766 23.6942C34.2941 22.7254 35.4357 22.2417 36.9007 22.2417V22.2418ZM27.7548 22.2586C28.8223 22.2586 29.7929 22.5442 30.6671 23.1134L30.2231 24.1029C29.475 23.7849 28.7374 23.6253 28.0101 23.6253C27.4199 23.6253 26.9651 23.7673 26.6481 24.0531C26.3294 24.3364 26.1322 24.701 26.1322 25.1454C26.1322 25.8284 26.6187 26.4206 27.517 26.9209C27.8113 27.0818 28.1046 27.2445 28.3968 27.4091L28.4639 27.4468L28.4975 27.4657L28.5646 27.5034L28.5981 27.5223L28.6651 27.5601C29.3451 27.9435 29.985 28.3094 29.985 28.3094C30.8832 28.947 31.331 29.6268 31.331 30.7465C31.331 31.7243 30.9727 32.5269 30.2584 33.155C29.5436 33.7803 28.5833 34.0938 27.3807 34.0938C26.256 34.0938 25.166 33.7329 24.1101 33.0173L24.604 32.0269C25.5127 32.4823 26.3349 32.7098 27.0733 32.7098C27.7657 32.7098 28.3078 32.5552 28.6999 32.2499C29.0913 31.9423 29.3257 31.5134 29.3257 30.9695C29.3257 30.2849 28.8496 29.6997 27.976 29.2088C27.7025 29.0577 27.4299 28.9052 27.1581 28.7512L27.0912 28.7133C26.9683 28.6438 26.8444 28.5735 26.7231 28.5046L26.6574 28.4672C26.0675 28.1317 25.5575 27.8385 25.5575 27.8385C24.6842 27.1998 24.2463 26.5144 24.2463 25.3851C24.2463 24.4511 24.5729 23.6962 25.225 23.1219C25.8787 22.5463 26.7221 22.2586 27.7548 22.2586V22.2586ZM44.8907 22.4129V32.524H48.5185V33.9423H43.0508V22.4129H44.8907ZM50.5343 32.5284V32.7681H50.1355V33.941H49.8306V32.7681H49.4162V32.5284H50.5344H50.5343ZM51.2708 32.5284L51.6538 33.4913L52.0056 32.5284H52.4379V33.941H52.1505V32.866L51.7501 33.941H51.5428L51.1418 32.866H51.1264V33.941H50.8545V32.5284H51.2709H51.2708ZM36.7129 23.6597C34.9529 23.6597 34.0724 25.1122 34.0724 28.0154C34.0724 29.6783 34.3057 30.8842 34.7715 31.6358C35.2029 32.3314 35.8785 32.6785 36.7984 32.6785C38.5585 32.6785 39.4388 31.2147 39.4388 28.2883C39.4388 26.6486 39.2055 25.4531 38.7403 24.7011C38.3085 24.0071 37.6331 23.6597 36.713 23.6597H36.7129Z" fill="#F29111"/>
<path d="M32.0999 3.7144C32.6837 2.27977 34.7252 3.36621 35.5174 3.86735C35.7116 3.99273 35.9343 4.25762 36.1569 4.35553C36.5042 4.36916 36.8512 4.39634 37.1991 4.41086C37.8517 4.5642 38.4629 4.68949 38.9771 4.98233C41.3666 6.38958 42.9221 7.82362 44.3537 10.1923C44.6596 10.694 44.8125 11.237 45.0624 11.7799C45.4092 12.5892 45.7989 13.4387 46.2014 14.2039C46.3817 14.5667 46.5211 14.9701 46.7713 15.2765C46.8691 15.4166 47.1466 15.4579 47.3125 15.5416C47.7712 15.779 48.3269 15.9593 48.7582 16.2379C49.5638 16.7402 50.3427 17.3388 51.0508 17.9515C51.3147 18.1881 51.4945 18.5229 51.746 18.7731V18.8993C51.5228 18.9678 51.3004 19.038 51.0777 19.0942C50.5915 19.2191 50.1608 19.1908 49.6891 19.3158C49.3976 19.4004 49.0357 19.5119 48.73 19.5403L48.7582 19.5687C48.9381 20.0826 49.9111 20.5006 50.3562 20.8079C50.8966 21.198 51.3975 21.6711 51.8006 22.2144C51.9398 22.353 52.079 22.4792 52.2176 22.6174C52.3144 22.7575 52.3417 22.9387 52.4397 23.0636V23.1059C52.3312 23.0676 52.2531 22.9945 52.1792 22.9182L52.1351 22.8721C52.0909 22.8263 52.0464 22.7813 51.9957 22.7442C51.689 22.5347 51.3844 22.2841 51.0777 22.0894C50.5505 21.7549 49.939 21.5607 49.3976 21.2249C49.0915 21.0299 48.7997 20.8079 48.508 20.5848C48.2435 20.3893 47.9522 20.0138 47.786 19.7352C47.6881 19.5813 47.6746 19.4004 47.5628 19.289C47.5828 19.103 47.7532 19.0478 47.9251 19.0024L47.9647 18.992C48.024 18.9766 48.082 18.9612 48.1327 18.9408C48.855 18.6342 49.7161 18.5229 50.8281 18.5508C50.7862 18.2716 50.0914 17.9237 49.8695 17.7565C49.4243 17.4356 48.9529 17.1008 48.4806 16.8087C48.2303 16.6557 47.799 16.5441 47.5218 16.4191C47.1466 16.2658 46.3128 16.1125 46.1049 15.8204C45.7517 15.36 45.498 14.8109 45.2518 14.2561L45.1847 14.1048C45.1624 14.0543 45.14 14.0039 45.1175 13.9535C44.8264 13.2854 44.4648 12.589 44.173 11.905C44.0205 11.5713 43.9504 11.2785 43.7833 10.9584C42.7695 8.99463 41.2689 7.35045 39.4496 6.19416C38.8517 5.81791 38.185 5.46973 37.4491 5.2331C37.032 5.10713 36.5315 5.17679 36.0872 5.08014H35.7947C35.5451 5.00981 35.3367 4.74521 35.142 4.6057C34.7119 4.31363 34.2811 4.11753 33.7667 3.90914C33.5865 3.82555 33.0718 3.63091 32.8921 3.78415C32.7809 3.81211 32.7245 3.8541 32.6971 3.96574C32.5864 4.13233 32.6837 4.38329 32.7526 4.53692C32.9613 4.98214 33.2528 5.24673 33.5174 5.62298C33.7528 5.95664 34.0451 6.33288 34.212 6.69568C34.5721 7.47554 34.7397 8.33957 35.0734 9.11932C35.1971 9.41256 35.3928 9.74623 35.573 10.0107C35.7256 10.2207 36.0032 10.3725 36.0872 10.6382C36.2545 10.9168 35.8366 11.8362 35.7399 12.1282C35.3779 13.2706 35.4481 14.8587 35.8648 15.849L35.8871 15.9012L35.9093 15.9541C36.0614 16.3168 36.2243 16.7074 36.6289 16.8088C36.6568 16.7811 36.6289 16.7956 36.6842 16.7811C36.7821 16.0146 36.8096 15.2764 37.0738 14.6767C37.2265 14.3017 37.5313 14.0367 37.7403 13.7306C37.8796 13.814 37.8796 14.0654 37.9626 14.2318C38.1434 14.6634 38.3376 15.1365 38.5605 15.5694C39.018 16.4608 39.5328 17.325 40.116 18.1048C40.3113 18.3833 40.5885 18.6899 40.8385 18.9407C40.9498 19.0379 41.0745 19.094 41.1582 19.219H41.1855V19.2611C40.7687 19.1074 40.5045 18.6762 40.1721 18.4245C39.5463 17.9513 38.7968 17.2407 38.3655 16.5589C38.185 16.1675 37.99 15.7923 37.7955 15.4028V15.3746C37.7124 15.4859 37.7403 15.5964 37.6987 15.7647C37.5183 16.4608 37.6572 17.2549 37.032 17.5052C36.3234 17.7985 35.7948 17.0321 35.573 16.6838C34.8641 15.5278 34.67 13.5776 35.1698 12.0034C35.2809 11.6549 35.296 11.237 35.4899 10.9587C35.448 10.7072 35.2541 10.6384 35.142 10.4843C34.9475 10.2209 34.781 9.91399 34.6288 9.62143C34.3363 9.04996 34.1282 8.36714 33.9062 7.75426C33.8086 7.50398 33.7806 7.25273 33.6833 7.01581C33.5173 6.65418 33.2113 6.29138 32.9752 5.97145C32.6556 5.51162 31.7246 4.62041 32.0999 3.7144V3.7144ZM36.6565 6.44365C36.6936 6.48087 36.7384 6.5134 36.7848 6.54546L36.8407 6.58384C36.9152 6.63547 36.9874 6.68983 37.0317 6.76387C37.1018 6.86188 37.1149 6.95862 37.1988 7.05682C37.1988 7.39166 37.1018 7.61426 36.9059 7.75299C36.9059 7.75299 36.8925 7.76761 36.8788 7.78124C36.7677 7.55805 36.6704 7.33603 36.5586 7.11303C36.4208 6.91838 36.2261 6.76397 36.1139 6.54156H36.0869V6.5136C36.2545 6.4722 36.4208 6.44365 36.6565 6.44365Z" fill="#00758F"/>
</g>
<defs>
<clipPath id="clip0_131_358">
<rect width="49.8865" height="34" fill="white" transform="translate(2.55664 3)"/>
</clipPath>
</defs>
</svg>
