<svg width="40" height="40" viewBox="0 0 40 40" fill="none" xmlns="http://www.w3.org/2000/svg">
<g clip-path="url(#clip0_36_176)">
<path d="M20 40C31.0457 40 40 31.0457 40 20C40 8.9543 31.0457 0 20 0C8.9543 0 0 8.9543 0 20C0 31.0457 8.9543 40 20 40Z" fill="black"/>
<path d="M33.2241 35.0044L15.3648 12H12V27.9933H14.6919V15.4187L31.1109 36.6322C31.8506 36.137 32.5566 35.5932 33.2241 35.0044Z" fill="url(#paint0_linear_36_176)"/>
<path d="M25.5557 12H28.2224V28H25.5557V12Z" fill="url(#paint1_linear_36_176)"/>
</g>
<defs>
<linearGradient id="paint0_linear_36_176" x1="23.8076" y1="25.8889" x2="30.8952" y2="34.6736" gradientUnits="userSpaceOnUse">
<stop stop-color="white"/>
<stop offset="1" stop-color="white" stop-opacity="0"/>
</linearGradient>
<linearGradient id="paint1_linear_36_176" x1="26.889" y1="12" x2="26.8439" y2="23.7499" gradientUnits="userSpaceOnUse">
<stop stop-color="white"/>
<stop offset="1" stop-color="white" stop-opacity="0"/>
</linearGradient>
<clipPath id="clip0_36_176">
<rect width="40" height="40" fill="white"/>
</clipPath>
</defs>
</svg>
