<svg width="36" height="40" viewBox="0 0 36 40" fill="none" xmlns="http://www.w3.org/2000/svg">
<g clip-path="url(#clip0_36_164)">
<path d="M17.72 39.9257C17.1699 39.9257 16.6564 39.779 16.1796 39.5223L11.3011 36.6246C10.5675 36.2211 10.9343 36.0744 11.1544 36.001C12.1447 35.6709 12.3281 35.5976 13.3551 35.0106C13.4652 34.9372 13.612 34.9739 13.7218 35.0473L17.4633 37.2848C17.61 37.3581 17.7934 37.3581 17.9034 37.2848L32.5387 28.8118C32.6854 28.7385 32.7588 28.5918 32.7588 28.4084V11.4989C32.7588 11.3155 32.6854 11.1688 32.5387 11.0954L17.9034 2.65903C17.7567 2.58567 17.5733 2.58567 17.4633 2.65903L2.82801 11.0956C2.68129 11.1689 2.60794 11.3523 2.60794 11.499V28.4084C2.60794 28.5551 2.68129 28.7385 2.82801 28.8118L6.82621 31.1226C8.99036 32.2229 10.3473 30.9392 10.3473 29.6554V12.966C10.3473 12.746 10.5308 12.5259 10.7876 12.5259H12.6583C12.8784 12.5259 13.0985 12.7093 13.0985 12.966V29.6553C13.0985 32.553 11.5212 34.2402 8.77015 34.2402C7.92655 34.2402 7.26634 34.2402 5.39576 33.3233L1.54427 31.1226C0.590635 30.5722 0.00378418 29.5453 0.00378418 28.4449V11.5357C0.00378418 10.4354 0.590635 9.40837 1.54427 8.85806L16.1796 0.385121C17.0965 -0.128374 18.3436 -0.128374 19.2605 0.385121L33.8958 8.85806C34.8495 9.40824 35.4363 10.4352 35.4363 11.5357V28.4451C35.4363 29.5454 34.8495 30.5724 33.8958 31.1226L19.2605 39.5958C18.7837 39.8158 18.2335 39.9259 17.72 39.9259V39.9257ZM22.2316 28.2982C15.8126 28.2982 14.4922 25.3639 14.4922 22.8697C14.4922 22.6496 14.6756 22.4295 14.9324 22.4295H16.8396C17.0597 22.4295 17.2432 22.5763 17.2432 22.7963C17.5367 24.7403 18.3803 25.694 22.2683 25.694C25.3494 25.694 26.6699 24.9972 26.6699 23.3466C26.6699 22.3929 26.3032 21.696 21.498 21.219C17.5 20.8156 15.0057 19.9353 15.0057 16.7443C15.0057 13.7731 17.4998 12.0125 21.6814 12.0125C26.3764 12.0125 28.6872 13.6264 28.9807 17.1476C28.9807 17.2576 28.944 17.3677 28.8706 17.4777C28.7973 17.5511 28.6872 17.6244 28.5772 17.6244H26.6699C26.4864 17.6244 26.3032 17.4777 26.2663 17.2943C25.8262 15.277 24.6892 14.6168 21.6814 14.6168C18.307 14.6168 17.9034 15.7905 17.9034 16.6708C17.9034 17.7346 18.3803 18.0646 22.9285 18.6514C27.4402 19.2383 29.5675 20.082 29.5675 23.2365C29.5308 26.4643 26.89 28.2982 22.2316 28.2982V28.2982Z" fill="#539E43"/>
</g>
<defs>
<clipPath id="clip0_36_164">
<rect width="35.44" height="40" fill="white"/>
</clipPath>
</defs>
</svg>
