<svg width="40" height="40" viewBox="0 0 40 40" fill="none" xmlns="http://www.w3.org/2000/svg">
<path d="M33.8923 28.9032L22.1997 4.07231C22.0544 3.76678 21.8292 3.50621 21.5479 3.31818C21.2667 3.13015 20.9398 3.02165 20.6019 3.00415C20.2634 2.98147 19.9252 3.05203 19.624 3.20817C19.3228 3.36431 19.0701 3.60004 18.8936 3.88974L6.21172 24.4301C6.01888 24.7403 5.91846 25.0989 5.92222 25.4641C5.92598 25.8293 6.03377 26.1859 6.23295 26.492L12.4331 36.0936C12.6677 36.4541 13.0125 36.729 13.4161 36.8774C13.8197 37.0259 14.2605 37.0399 14.6727 36.9173L32.6659 31.595C32.9368 31.5158 33.1876 31.3793 33.4012 31.1949C33.6149 31.0104 33.7864 30.7822 33.9043 30.5257C34.0205 30.2706 34.0797 29.9932 34.0778 29.7128C34.0759 29.4325 34.0129 29.1559 33.8932 28.9024L33.8923 28.9032V28.9032ZM31.2745 29.9682L16.0063 34.483C15.5405 34.6216 15.0934 34.2179 15.1903 33.7478L20.6453 7.62851C20.7472 7.13986 21.4221 7.06243 21.6354 7.51468L31.7335 28.9585C31.7781 29.054 31.8015 29.1581 31.802 29.2636C31.8025 29.369 31.7802 29.4733 31.7365 29.5693C31.6928 29.6653 31.6288 29.7506 31.5489 29.8195C31.469 29.8883 31.3751 29.939 31.2737 29.9681H31.2745V29.9682Z" fill="white"/>
</svg>
