<svg width="40" height="40" viewBox="0 0 40 40" fill="none" xmlns="http://www.w3.org/2000/svg">
<path d="M19.8563 2.62486C10.9813 2.62486 11.5425 6.46236 11.5425 6.46236V10.4499H19.9825V11.6999H8.18125C8.18125 11.6999 2.5 10.9999 2.5 20.0061C2.5 29.0124 7.51625 28.6461 7.51625 28.6461H10.4125V24.4449C10.4125 24.4449 10.25 19.4286 15.2875 19.4286H23.74C23.74 19.4286 28.455 19.5036 28.455 14.8636V7.24986C28.455 7.24986 29.17 2.60986 19.9025 2.60986L19.8563 2.62486ZM15.1912 5.29611C15.4913 5.28854 15.7869 5.37012 16.0405 5.53053C16.2942 5.69094 16.4946 5.92298 16.6164 6.1973C16.7383 6.47162 16.776 6.7759 16.7248 7.07165C16.6737 7.36741 16.536 7.64136 16.3292 7.85887C16.1223 8.07637 15.8557 8.22764 15.5628 8.29357C15.27 8.3595 14.9642 8.33711 14.6841 8.22924C14.4041 8.12137 14.1622 7.93286 13.9893 7.68756C13.8163 7.44225 13.72 7.15116 13.7125 6.85111V6.82611C13.7125 6.42365 13.8724 6.03767 14.157 5.75308C14.4416 5.46849 14.8275 5.30861 15.23 5.30861L15.1912 5.29611Z" fill="url(#paint0_linear_52_182)"/>
<path d="M20.1062 37.3876C28.9812 37.3876 28.42 33.5376 28.42 33.5376V29.5626H19.9812V28.3126H31.8187C31.8187 28.3126 37.5 28.9476 37.5 19.9939C37.5 11.0401 32.4837 11.3539 32.4837 11.3539H29.55V15.5001C29.55 15.5001 29.7125 20.5164 24.675 20.5164H16.2187C16.2187 20.5164 11.5 20.4451 11.5 25.0851V32.7501C11.5 32.7501 10.785 37.3901 20.0525 37.3901H20.1025L20.1062 37.3876ZM24.7712 34.7039C24.4712 34.7115 24.1756 34.6299 23.9219 34.4695C23.6682 34.3091 23.4678 34.077 23.346 33.8027C23.2242 33.5284 23.1865 33.2241 23.2376 32.9283C23.2888 32.6326 23.4264 32.3586 23.6333 32.1411C23.8401 31.9236 24.1068 31.7724 24.3996 31.7064C24.6924 31.6405 24.9982 31.6629 25.2783 31.7708C25.5584 31.8786 25.8002 32.0671 25.9732 32.3124C26.1461 32.5577 26.2424 32.8488 26.25 33.1489V33.1864C26.25 33.5888 26.0901 33.9748 25.8055 34.2594C25.5209 34.544 25.1349 34.7039 24.7325 34.7039H24.77H24.7712Z" fill="url(#paint1_linear_52_182)"/>
<defs>
<linearGradient id="paint0_linear_52_182" x1="5.95895" y1="6.02849" x2="22.5673" y2="22.5992" gradientUnits="userSpaceOnUse">
<stop stop-color="#387EB8"/>
<stop offset="1" stop-color="#366994"/>
</linearGradient>
<linearGradient id="paint1_linear_52_182" x1="15.7843" y1="16.8233" x2="34.7596" y2="33.3891" gradientUnits="userSpaceOnUse">
<stop stop-color="#FFE052"/>
<stop offset="1" stop-color="#FFC331"/>
</linearGradient>
</defs>
</svg>
