<svg width="40" height="40" viewBox="0 0 40 40" fill="none" xmlns="http://www.w3.org/2000/svg">
<path d="M20 23.0923C21.7259 23.0923 23.125 21.6932 23.125 19.9673C23.125 18.2414 21.7259 16.8423 20 16.8423C18.2741 16.8423 16.875 18.2414 16.875 19.9673C16.875 21.6932 18.2741 23.0923 20 23.0923Z" fill="#00D8FF"/>
<path d="M20 27.1326C16.2439 27.2234 12.4972 26.7171 8.9 25.6326C7.23828 25.1058 5.68842 24.276 4.32875 23.1851C3.80991 22.8124 3.37784 22.3319 3.06218 21.7765C2.74652 21.2211 2.55474 20.6041 2.5 19.9676C2.5 17.9013 4.77 15.8763 8.5725 14.5513C12.2659 13.3773 16.1249 12.8083 20 12.8663C23.8234 12.8129 27.6307 13.3717 31.2775 14.5213C32.8779 15.0315 34.3752 15.8212 35.7 16.8538C36.21 17.2091 36.6356 17.6722 36.9466 18.2103C37.2577 18.7484 37.4466 19.3484 37.5 19.9676C37.5 22.1151 34.9625 24.2913 30.875 25.6438C27.3474 26.6931 23.6798 27.1951 20 27.1326ZM20 14.3613C16.2926 14.3118 12.601 14.8527 9.06375 15.9638C5.56375 17.1851 3.995 18.8551 3.995 19.9638C3.995 21.1238 5.68125 22.9476 9.38375 24.2138C12.8251 25.2462 16.4083 25.7267 20 25.6376C23.5205 25.7005 27.0299 25.2242 30.4062 24.2251C34.25 22.9513 36 21.1251 36 19.9676C35.9369 19.5704 35.7922 19.1906 35.5749 18.8521C35.3576 18.5137 35.0724 18.224 34.7375 18.0013C33.5522 17.0853 32.2146 16.3854 30.7862 15.9338C27.2975 14.8385 23.6562 14.3077 20 14.3613Z" fill="#00D8FF"/>
<path d="M12.9 35.5536C12.3169 35.567 11.7406 35.4255 11.23 35.1436C9.44 34.1111 8.82 31.1336 9.57125 27.1773C10.3996 23.3912 11.8348 19.764 13.8213 16.4361C15.6847 13.0975 18.0702 10.0785 20.8875 7.49359C22.129 6.36198 23.5611 5.45927 25.1175 4.82734C25.6805 4.56352 26.2945 4.42676 26.9163 4.42676C27.538 4.42676 28.1521 4.56352 28.715 4.82734C30.5763 5.89984 31.1925 9.18484 30.3238 13.4011C29.4699 16.9818 28.072 20.4104 26.1788 23.5673C24.3809 26.8665 22.0705 29.8592 19.3338 32.4336C18.0472 33.6096 16.5542 34.5373 14.93 35.1698C14.2798 35.4112 13.5935 35.5409 12.9 35.5536ZM15.1163 17.1786C13.2214 20.3653 11.8458 23.8332 11.0413 27.4523C10.35 31.0961 11.0138 33.2873 11.9788 33.8448C12.9788 34.4236 15.4062 33.8748 18.3538 31.2998C20.9663 28.8335 23.1715 25.9688 24.8875 22.8123C26.7012 19.7942 28.0421 16.5163 28.8638 13.0923C29.6812 9.12359 28.975 6.69359 27.9725 6.11609C27.5968 5.97213 27.1952 5.90768 26.7933 5.92683C26.3914 5.94598 25.9978 6.04831 25.6375 6.22734C24.2521 6.79903 22.9784 7.61063 21.875 8.62484C19.1833 11.1008 16.9046 13.991 15.125 17.1861L15.1163 17.1786Z" fill="#00D8FF"/>
<path d="M27.0963 35.57C25.4026 35.57 23.2513 34.545 21.0113 32.6187C18.1447 30.0103 15.7188 26.9555 13.8276 23.5725C11.866 20.2904 10.4421 16.7157 9.61006 12.9837C9.24919 11.3418 9.18232 9.64896 9.41256 7.98372C9.46578 7.36598 9.65389 6.76744 9.9636 6.2303C10.2733 5.69317 10.6971 5.23051 11.2051 4.87497C13.0638 3.79872 16.2176 4.90497 19.4363 7.76247C22.112 10.2902 24.3843 13.2134 26.1738 16.43C28.1342 19.6354 29.5729 23.1319 30.4363 26.7887C30.8127 28.4909 30.8708 30.248 30.6076 31.9712C30.5449 32.6067 30.3456 33.2212 30.0233 33.7724C29.7009 34.3237 29.2632 34.7987 28.7401 35.165C28.2378 35.4434 27.6704 35.5832 27.0963 35.57ZM15.1213 22.82C16.9356 26.053 19.2529 28.9767 21.9863 31.4812C24.7976 33.9 27.0276 34.42 27.9863 33.8562C28.9863 33.275 29.7238 30.9025 28.9638 27.0637C28.1312 23.5724 26.7512 20.2349 24.8751 17.175C23.1673 14.0964 20.9985 11.2973 18.4438 8.87497C15.4138 6.18497 12.9563 5.58372 11.9551 6.16372C11.643 6.41733 11.3869 6.73288 11.2029 7.09046C11.019 7.44804 10.9112 7.83987 10.8863 8.24122C10.6876 9.72633 10.7523 11.2349 11.0776 12.6975C11.8779 16.2664 13.2435 19.6845 15.1226 22.8225L15.1213 22.82Z" fill="#00D8FF"/>
</svg>
