<svg width="40" height="40" viewBox="0 0 40 40" fill="none" xmlns="http://www.w3.org/2000/svg">
<path d="M26.9083 26.7453C28.2299 26.6085 29.2326 25.4692 29.1869 24.1018C29.1415 22.7346 28.002 21.6407 26.6348 21.6407H26.5437C25.1307 21.6863 24.037 22.8713 24.0826 24.2841C24.1282 24.9678 24.4016 25.5603 24.8118 25.9704C23.2623 29.0241 20.8924 31.2573 17.3376 33.1259C14.9221 34.4021 12.4155 34.8579 9.90898 34.5389C7.85808 34.2654 6.26296 33.354 5.26017 31.8498C3.80187 29.6166 3.66519 27.201 4.89574 24.7855C5.7617 23.0536 7.12879 21.7774 7.99476 21.1393C7.81247 20.5469 7.53897 19.5442 7.40229 18.8151C0.793922 23.6006 1.4776 30.0724 3.4829 33.1259C4.98681 35.4049 8.04037 36.8177 11.4129 36.8177C12.3243 36.8177 13.2358 36.7265 14.1473 36.4987C19.981 35.3593 24.4017 31.8954 26.9083 26.7453V26.7453ZM34.9295 21.0939C31.4657 17.0375 26.3614 14.8043 20.5278 14.8043H19.7987C19.3885 13.984 18.5225 13.437 17.5655 13.437H17.4743C16.0616 13.4826 14.9678 14.6675 15.0133 16.0805C15.0589 17.4477 16.1982 18.5416 17.5655 18.5416H17.6565C18.6592 18.496 19.5252 17.8579 19.8897 16.9919H20.7101C24.1738 16.9919 27.4551 17.9946 30.4176 19.9544C32.6963 21.4584 34.337 23.4183 35.2485 25.7881C36.0232 27.7024 35.9776 29.571 35.1572 31.1662C33.8812 33.5817 31.7392 34.9035 28.9136 34.9035C27.0906 34.9035 25.3588 34.3565 24.4472 33.9463C23.9459 34.4021 23.0344 35.1312 22.3963 35.5872C24.3561 36.4986 26.3614 37 28.2755 37C32.6507 37 35.8865 34.5844 37.1171 32.1689C38.4387 29.5254 38.3475 24.9678 34.9295 21.0939V21.0939ZM11.7775 27.5199C11.8231 28.8873 12.9624 29.981 14.3296 29.981H14.4208C15.8337 29.9356 16.9274 28.7505 16.8818 27.3377C16.8363 25.9703 15.6969 24.8766 14.3296 24.8766H14.2386C14.1473 24.8766 14.0105 24.8766 13.9196 24.922C12.051 21.8229 11.2762 18.4503 11.5497 14.8042C11.7319 12.0696 12.6434 9.69958 14.2386 7.73975C15.5602 6.05342 18.1123 5.23305 19.8443 5.18759C24.6751 5.09637 26.7259 11.1124 26.8627 13.528C27.4551 13.6647 28.4578 13.9838 29.1415 14.2117C28.5945 6.82845 24.037 3 19.662 3C15.5602 3 11.7775 5.96248 10.2734 10.3378C8.17705 16.1715 9.54427 21.7774 12.0964 26.1983C11.8687 26.5173 11.7319 27.0187 11.7775 27.5201V27.5199Z" fill="#764ABC"/>
</svg>
