<svg width="40" height="40" viewBox="0 0 40 40" fill="none" xmlns="http://www.w3.org/2000/svg">
<path d="M11.25 17.125C12.4167 12.4583 15.3333 10.125 20 10.125C27 10.125 27.875 15.375 31.375 16.25C33.7083 16.8333 35.75 15.9583 37.5 13.625C36.3333 18.2917 33.4167 20.625 28.75 20.625C21.75 20.625 20.875 15.375 17.375 14.5C15.0417 13.9167 13 14.7917 11.25 17.125ZM2.5 27.625C3.66667 22.9583 6.58333 20.625 11.25 20.625C18.25 20.625 19.125 25.875 22.625 26.75C24.9583 27.3333 27 26.4583 28.75 24.125C27.5833 28.7917 24.6667 31.125 20 31.125C13 31.125 12.125 25.875 8.625 25C6.29167 24.4167 4.25 25.2917 2.5 27.625Z" fill="#44A8B3"/>
</svg>
