<svg width="40" height="40" viewBox="0 0 40 40" fill="none" xmlns="http://www.w3.org/2000/svg">
<g clip-path="url(#clip0_132_357)">
<path d="M5.23438 2.5H34.7656C36.2758 2.5 37.5 3.72418 37.5 5.23438V34.7656C37.5 36.2758 36.2758 37.5 34.7656 37.5H5.23438C3.72418 37.5 2.5 36.2758 2.5 34.7656V5.23438C2.5 3.72418 3.72418 2.5 5.23438 2.5Z" fill="#3178C6"/>
<path d="M23.5813 29.6307V33.0293C24.134 33.3125 24.7878 33.5249 25.5424 33.6665C26.2971 33.8082 27.0925 33.8789 27.9287 33.8789C28.7435 33.8789 29.5177 33.801 30.2511 33.6452C30.9844 33.4895 31.6276 33.2328 32.1802 32.8753C32.7329 32.5178 33.1705 32.0504 33.493 31.4733C33.8154 30.8964 33.9766 30.1831 33.9766 29.3334C33.9766 28.7175 33.8844 28.1775 33.7002 27.7138C33.518 27.2531 33.2471 26.8328 32.903 26.4765C32.5559 26.1154 32.1395 25.7915 31.6542 25.5047C31.1688 25.218 30.6213 24.9472 30.0119 24.6923C29.5655 24.5081 29.1652 24.3295 28.8108 24.156C28.4566 23.9825 28.1553 23.8056 27.9074 23.6249C27.6593 23.4444 27.468 23.2532 27.3334 23.0514C27.1988 22.8496 27.1315 22.6213 27.1315 22.3664C27.1315 22.1327 27.1916 21.9222 27.3121 21.7345C27.4326 21.5469 27.6027 21.3858 27.8224 21.2513C28.042 21.1167 28.3112 21.0124 28.6302 20.9379C28.949 20.8636 29.3034 20.8265 29.6931 20.8265C29.9766 20.8265 30.2759 20.8477 30.5912 20.8902C30.9065 20.9327 31.2236 20.9981 31.5426 21.0867C31.8605 21.1748 32.1714 21.2867 32.4726 21.4213C32.7646 21.5507 33.044 21.7071 33.3069 21.8885V18.713C32.7897 18.5148 32.2245 18.3679 31.6116 18.2723C30.9987 18.1766 30.2954 18.1289 29.5017 18.1289C28.6939 18.1289 27.9287 18.2157 27.2059 18.3892C26.4831 18.5625 25.8471 18.8333 25.2979 19.2015C24.7488 19.5698 24.3148 20.0388 23.9959 20.6088C23.677 21.1787 23.5176 21.8602 23.5176 22.6532C23.5176 23.6656 23.8098 24.5294 24.3945 25.2446C24.9791 25.9596 25.8665 26.565 27.057 27.0606C27.4965 27.2396 27.9324 27.4273 28.3644 27.6236C28.7684 27.8076 29.1173 27.9987 29.4114 28.197C29.7055 28.3952 29.9375 28.6111 30.1076 28.8448C30.2777 29.0785 30.3627 29.344 30.3627 29.6414C30.3641 29.8555 30.3091 30.0661 30.2032 30.2521C30.097 30.4396 29.9357 30.6025 29.7196 30.7406C29.5036 30.8787 29.2342 30.9866 28.9118 31.0645C28.5894 31.1423 28.2121 31.1813 27.7798 31.1813C27.0429 31.1813 26.3131 31.0521 25.5903 30.7936C24.8674 30.5352 24.1978 30.1476 23.5813 29.6307ZM17.9167 21.1733H22.2871V18.375H10.1055V21.1733H14.4546V33.6328H17.9167V21.1733Z" fill="white"/>
</g>
<defs>
<clipPath id="clip0_132_357">
<rect width="35" height="35" fill="white" transform="translate(2.5 2.5)"/>
</clipPath>
</defs>
</svg>
