<svg width="48" height="48" viewBox="0 0 48 48" fill="none" xmlns="http://www.w3.org/2000/svg">
<path d="M8.36239 8.2953L6.59058 9.90604L39.1006 44L39.0201 43.4899L38.9933 43.0872V42.3624L39.1812 41.8792V41.557L39.0738 41.3423L38.9933 41.2349V41.0738V40.4564L38.859 40.2685L38.7248 40.0268L38.6711 39.6242V39.1678L38.7248 38.953L38.859 38.6577L38.9933 38.3087V37.7718L38.859 37.557L38.7248 37.3691L38.6711 37.2081V37.0201L38.8053 36.8054L38.9396 36.4832L39.1812 36.1074V35.7584L39.0738 35.5705L38.8859 35.3289V34.9799L38.9933 34.6846V34.3356L38.9127 34.1476L38.8053 33.9329L38.7785 32.698L38.51 32L38.4295 31.7584L38.7516 31.1141V30.443L38.698 30.3087L38.51 30.0134L38.2684 29.745L38 29.5302L37.8926 29.396V29.2886L37.9463 29.1007V28.9396V28.5638V28.2685L37.8389 27.9732L37.7047 27.7315L37.5436 27.4899L37.4094 27.3289L37.1678 27.1409V25.7718C37.1678 25.7503 37.132 25.5839 37.1141 25.5034L36.953 25.2617L36.8188 25.0738L36.7114 24.9396V24.6175V24.4027L36.6577 24.2685L36.5503 24.1879L36.4161 24.1074L36.255 24L36.1745 23.8658L36.0939 23.7852V23.6242V23.3826L36.1476 23.1409L36.2013 22.9799L36.3087 22.8456V22.6846L36.255 22.5503L36.1745 22.4161L35.9597 22.3624L35.7986 22.3087L35.6376 22.1745L35.5033 22.094L35.4228 21.9329L35.3691 21.8255V21.2617L35.2617 21.0738L35.0201 20.9396L34.698 20.8591L34.349 20.7785C34.2237 20.7606 33.9624 20.7248 33.9194 20.7248C33.8765 20.7248 33.7405 20.7069 33.6778 20.698L33.5436 20.5638L33.4094 20.4027L33.2483 20.1879L33.0335 20L32.8725 19.9463L32.6845 19.8926L32.3892 19.8658L32.2282 19.8121H31.9597H31.6376L31.557 19.6242L31.4496 19.3826L31.3423 19.1678L31.2349 19.0336L31.0201 18.8725L30.8053 18.8188H30.5906V18.604L30.6443 18.4698L30.9664 18.1745H31.1812L31.7718 18.6577L31.906 18.604L32.0402 18.5772L32.4429 18.604L32.8188 18.8725H33.0335H33.4631L33.8121 18.8188L34.349 18.7651L34.9664 18.8188H35.3154L35.5839 18.6577L35.8523 18.443H36.2013L36.5503 18.6309H36.9261L37.0067 18.5503L37.2483 18.3356L37.4899 17.906L37.7315 17.6644L37.8389 17.6107H38L38.0805 17.6644L38.2416 17.7181L38.4295 17.7987H38.6174L38.7785 17.6644L38.9664 17.5302L39.0738 17.3423L39.1275 17.1007L39.208 16.8859L39.3423 16.698L39.557 16.5369L40.5235 16.5101L40.6845 16.3758L41.0335 16L41.4094 15.4899V15.3289L41.3288 15.2215L41.2214 15.1141L41.0335 14.8456L40.953 14.7114L40.8188 14.3624L40.6577 14.094L40.4429 13.8792L40.2013 13.6644L39.9597 13.4765L39.7718 13.3423L39.7181 13.2081L39.6644 13.0738L39.6107 12.8054L39.557 12.6443L39.4765 12.4295L39.3154 12.2953H39.1543L38.9127 12.2148L38.7785 12.0537L38.6443 11.9463L38.5637 11.7047L38.51 11.4362L38.3758 11.1678L38.2416 11.0336L37.9731 10.9262L37.651 10.7651L37.4094 10.5235L37.2483 10.2013L37.0067 9.87919L36.7919 9.71812L36.5772 9.58389H36.3624L36.1476 9.63758L35.8523 9.71812L35.6644 9.63758L35.5033 9.42282L35.4228 9.2349L35.2349 9.10067L35.0738 9.07383L34.8053 9.10067L34.5637 9.02013L34.3221 8.88591L34.161 8.69799L33.9731 8.42953L33.8121 8.32215L32.1476 8.2953L31.7718 8.18792L31.3959 7.97315L31.1543 7.7047L31.0738 7.46309L31.1543 7.22148L31.8523 6.36242L31.906 6.22819V5.71812L31.9597 5.55705L32.2013 5.28859L32.5503 5.02013V4.91275L32.255 4.72483L31.9597 4.61745H31.7449H31.5839L31.4496 4.72483L31.1543 4.69799L30.9664 4.48322L30.7785 4.26846L30.4563 4.16107L29.9194 4.18792L29.5973 4.34899L29.0067 4.32215L28.6845 4.10738L28.5235 4.05369H28.0671L27.7449 4.21477L27.3691 4.48322H26.9127L26.698 4.34899L26.51 4.18792L26.1879 4.05369L25.7584 4L25.4631 4.05369L25.2214 4.18792L24.8456 4.51007H24.2282L24.0134 4.42953L23.6644 4.2953L23.3959 4.24161L23.1812 4.2953L22.5637 4.85906L22.4563 4.80537L22.1342 4.75168H21.7315L21.1678 4.80537L20.5503 4.96644L19.906 5.18121L19.208 5.50336L18.7248 5.79866L18.161 6.38926L17.7584 7.03356L17.4362 7.94631C17.3736 8.25056 17.2483 8.9557 17.2483 9.34228C17.2483 9.72886 17.3378 10.1834 17.3825 10.3624C17.1409 13.906 15.1275 15.0872 14.7248 15.1678C14.3221 15.2483 13.9463 15.2752 13.4362 15.1946C13.0282 15.1302 12.5324 14.774 12.3355 14.604L11.8523 14.094L11.1543 13.2617L10.0268 11.9463L9.00668 10.4698C8.38386 9.11678 8.31765 8.45638 8.36239 8.2953Z" fill="#4ADE80"/>
</svg>
